HIERARCHY
ROOT Hips
{
	OFFSET 0.000000 0.000000 0.000000
	CHANNELS 6 Xposition Yposition Zposition Zrotation Yrotation Xrotation 
	JOINT LowerBack
	{
		OFFSET 0.000000 0.000000 0.000000
		CHANNELS 3 Zrotation Yrotation Xrotation
		JOINT Spine
		{
			OFFSET 0.028270 2.035590 -0.193380
			CHANNELS 3 Zrotation Yrotation Xrotation
			JOINT Spine1
			{
				OFFSET 0.056720 2.048850 -0.042750
				CHANNELS 3 Zrotation Yrotation Xrotation
				JOINT Neck
				{
					OFFSET 0.000000 0.000000 0.000000
					CHANNELS 3 Zrotation Yrotation Xrotation
					JOINT Neck1
					{
						OFFSET -0.054170 1.746240 0.172020
						CHANNELS 3 Zrotation Yrotation Xrotation
						JOINT Head
						{
							OFFSET 0.104070 1.761360 -0.123970
							CHANNELS 3 Zrotation Yrotation Xrotation
							End Site
							{
								OFFSET 0.000000 0.000000 0.000000
							}
						}
					}
				}
				JOINT LeftShoulder
				{
					OFFSET 0.000000 0.000000 0.000000
					CHANNELS 3 Zrotation Yrotation Xrotation
					JOINT LeftArm
					{
						OFFSET 3.362410 1.200890 -0.311210
						CHANNELS 3 Zrotation Yrotation Xrotation
						JOINT LeftForeArm
						{
							OFFSET 4.983000 -0.000000 -0.000000
							CHANNELS 3 Zrotation Yrotation Xrotation
							JOINT LeftHand
							{
								OFFSET 3.483560 -0.000000 -0.000000
								CHANNELS 3 Zrotation Yrotation Xrotation
								JOINT LeftFingerBase
								{
									OFFSET 0.000000 0.000000 0.000000
									CHANNELS 3 Zrotation Yrotation Xrotation
									JOINT LeftHandIndex1
									{
										OFFSET 0.715260 -0.000000 -0.000000
										CHANNELS 3 Zrotation Yrotation Xrotation
										End Site
										{
											OFFSET 0.000000 0.000000 0.000000
										}
									}
								}
								JOINT LThumb
								{
									OFFSET 0.000000 0.000000 0.000000
									CHANNELS 3 Zrotation Yrotation Xrotation
									End Site
									{
										OFFSET 0.000000 0.000000 0.000000
									}
								}
							}
						}
					}
				}
				JOINT RightShoulder
				{
					OFFSET 0.000000 0.000000 0.000000
					CHANNELS 3 Zrotation Yrotation Xrotation
					JOINT RightArm
					{
						OFFSET -3.136600 1.374050 -0.404650
						CHANNELS 3 Zrotation Yrotation Xrotation
						JOINT RightForeArm
						{
							OFFSET -5.241900 -0.000000 -0.000000
							CHANNELS 3 Zrotation Yrotation Xrotation
							JOINT RightHand
							{
								OFFSET -3.444170 -0.000000 -0.000000
								CHANNELS 3 Zrotation Yrotation Xrotation
								JOINT RightFingerBase
								{
									OFFSET 0.000000 0.000000 0.000000
									CHANNELS 3 Zrotation Yrotation Xrotation
									JOINT RightHandIndex1
									{
										OFFSET -0.622530 -0.000000 -0.000000
										CHANNELS 3 Zrotation Yrotation Xrotation
										End Site
										{
											OFFSET 0.000000 0.000000 0.000000
										}
									}
								}
								JOINT RThumb
								{
									OFFSET 0.000000 0.000000 0.000000
									CHANNELS 3 Zrotation Yrotation Xrotation
									End Site
									{
										OFFSET 0.000000 0.000000 0.000000
									}
								}
							}
						}
					}
				}
			}
		}
	}
}
}
MOTION
Frames: 16
Frame Time: 0.008333
10.110561 20.891946 0.781907 29.973046 -85.419745 -5.787944 0.042301 -1.103294 -5.319742 -0.240058 -1.157401 -5.250034 -3.574815 -1.092751 -7.038746 2.394977 -2.600766 3.820847 -1.554000 -0.292534 3.225057 0.000000 0.000000 0.000000 10.259138 -3.713026 -4.702915 -47.112286 -63.674698 -25.565434 176.712630 -72.336813 179.694539 17.784122 -5.161469 -0.973153 -0.065904 1.022497 -0.000000 0.000000 0.000000 0.000000 0.000000 0.000000 0.000000 -2.888981 -2.729473 -5.398351 41.346421 71.554131 -31.435970 -178.605715 87.959194 179.676025 -20.845762 13.431937 -2.681202 0.076648 -0.985225 -0.000000 0.000000 0.000000 0.000000 0.000000 0.000000 0.000000 
9.979282 20.976685 0.773387 29.778984 -85.363778 -5.395767 0.149216 -1.057704 -5.186968 -0.216128 -1.117039 -5.215795 -3.528822 -1.047486 -6.985254 2.338512 -2.529177 4.034333 -1.555900 -0.295313 3.277739 0.000000 0.000000 0.000000 10.360537 -3.322244 -4.785232 -46.302272 -63.757870 -27.222808 176.502252 -70.762080 179.684274 18.496569 -5.268025 -1.031828 -0.090322 1.024266 -0.000000 0.000000 0.000000 0.000000 0.000000 0.000000 0.000000 -2.986000 -2.886416 -5.597220 39.746415 71.466750 -33.270359 -178.350090 86.108175 179.673422 -21.192086 13.468164 -2.735061 0.088795 -0.985393 -0.000000 0.000000 0.000000 0.000000 0.000000 0.000000 0.000000 
9.848447 21.050294 0.764942 29.644310 -85.319154 -5.071414 0.254890 -1.007251 -5.062065 -0.192456 -1.071959 -5.183038 -3.483873 -0.998508 -6.929461 2.286682 -2.427128 4.247850 -1.557280 -0.298004 3.330315 0.000000 0.000000 0.000000 10.417946 -2.958171 -4.853242 -45.610301 -63.836644 -28.668953 176.321228 -69.341482 179.674620 19.179060 -5.413849 -1.096994 -0.114492 1.026329 -0.000000 0.000000 0.000000 0.000000 0.000000 0.000000 0.000000 -3.068777 -3.006179 -5.779035 38.266692 71.360479 -34.937805 -178.116113 84.380747 179.670826 -21.539668 13.539159 -2.796216 0.100973 -0.985938 -0.000000 0.000000 0.000000 0.000000 0.000000 0.000000 0.000000 
9.717969 21.112795 0.756633 29.542407 -85.279840 -4.792080 0.357980 -0.954080 -4.944810 -0.169207 -1.024144 -5.151674 -3.440273 -0.947651 -6.872128 2.240098 -2.302602 4.457823 -1.557803 -0.300553 3.381897 0.000000 0.000000 0.000000 10.433435 -2.623086 -4.907737 -45.039582 -63.915970 -29.888632 176.169008 -68.074586 179.665812 19.811944 -5.590932 -1.166651 -0.137594 1.028781 -0.000000 0.000000 0.000000 0.000000 0.000000 0.000000 0.000000 -3.140170 -3.093912 -5.943327 36.915149 71.237734 -36.431964 -177.903386 82.778309 179.668190 -21.891713 13.634794 -2.863368 0.113202 -0.986789 -0.000000 0.000000 0.000000 0.000000 0.000000 0.000000 0.000000 
9.587603 21.163677 0.748551 29.420627 -85.239814 -4.506276 0.460567 -0.899937 -4.833279 -0.145947 -0.975436 -5.121170 -3.398440 -0.896538 -6.813159 2.198007 -2.164539 4.661160 -1.557508 -0.302929 3.431702 0.000000 0.000000 0.000000 10.410360 -2.318208 -4.949485 -44.590383 -63.998259 -30.872954 176.044076 -66.952864 179.658085 20.376002 -5.787178 -1.237799 -0.158896 1.031590 -0.000000 0.000000 0.000000 0.000000 0.000000 0.000000 0.000000 -3.203347 -3.156419 -6.089965 35.695260 71.102424 -37.751095 -177.711427 81.302116 179.665566 -22.245735 13.743006 -2.934116 0.125407 -0.987803 -0.000000 0.000000 0.000000 0.000000 0.000000 0.000000 0.000000 
9.457299 21.203095 0.740662 29.276120 -85.192983 -4.211323 0.560603 -0.846865 -4.728587 -0.123155 -0.927737 -5.091357 -3.359221 -0.846953 -6.751808 2.160802 -2.022907 4.855468 -1.557088 -0.305150 3.479135 0.000000 0.000000 0.000000 10.355378 -2.044057 -4.980047 -44.261939 -64.082408 -31.617641 175.944251 -65.965932 179.651563 20.856938 -5.994525 -1.307837 -0.177834 1.034797 -0.000000 0.000000 0.000000 0.000000 0.000000 0.000000 0.000000 -3.257694 -3.202874 -6.219141 34.611648 70.961692 -38.891644 -177.538984 79.948499 179.663007 -22.596723 13.852617 -3.005461 0.137443 -0.988844 -0.000000 0.000000 0.000000 0.000000 0.000000 0.000000 0.000000 
9.326953 21.230844 0.732933 29.089916 -85.134628 -3.886220 0.658514 -0.796398 -4.630677 -0.100891 -0.882626 -5.061883 -3.323535 -0.800338 -6.687132 2.128038 -1.886843 5.038854 -1.557450 -0.307244 3.523712 0.000000 0.000000 0.000000 10.275495 -1.800670 -5.000622 -44.050076 -64.164972 -32.126000 175.867405 -65.101291 179.646366 21.242535 -6.201534 -1.373364 -0.193981 1.038307 -0.000000 0.000000 0.000000 0.000000 0.000000 0.000000 0.000000 -3.302450 -3.242127 -6.331384 33.666305 70.824037 -39.853628 -177.384832 78.713620 179.660604 -22.936328 13.951968 -3.073801 0.149111 -0.989745 -0.000000 0.000000 0.000000 0.000000 0.000000 0.000000 0.000000 
9.196462 21.247060 0.725380 28.807600 -85.062285 -3.476245 0.758833 -0.749426 -4.536536 -0.078440 -0.841330 -5.031975 -3.292322 -0.757723 -6.618466 2.098541 -1.763892 5.209940 -1.559525 -0.309246 3.565069 0.000000 0.000000 0.000000 10.178043 -1.587289 -5.012079 -43.947122 -64.240609 -32.408695 175.811424 -64.344012 179.642586 21.524784 -6.395648 -1.430879 -0.207098 1.041940 -0.000000 0.000000 0.000000 0.000000 0.000000 0.000000 0.000000 -3.337417 -3.281694 -6.427642 32.857741 70.696961 -40.641933 -177.247763 77.593326 179.658461 -23.255017 14.030198 -3.135438 0.160198 -0.990340 -0.000000 0.000000 0.000000 0.000000 0.000000 0.000000 0.000000 
9.065811 21.252024 0.717838 28.474252 -84.974149 -3.021091 0.857915 -0.707055 -4.448856 -0.056738 -0.804734 -5.001848 -3.266436 -0.719982 -6.544900 2.072348 -1.660001 5.367908 -1.564335 -0.311202 3.602987 0.000000 0.000000 0.000000 10.071144 -1.402477 -5.015532 -43.941820 -64.303246 -32.482520 175.773999 -63.677751 179.640197 21.701843 -6.571299 -1.478382 -0.217159 1.045643 -0.000000 0.000000 0.000000 0.000000 0.000000 0.000000 0.000000 -3.359893 -3.328580 -6.508924 32.183891 70.589519 -41.262297 -177.125839 76.577363 179.656652 -23.543934 14.079581 -3.187071 0.170499 -0.990522 -0.000000 0.000000 0.000000 0.000000 0.000000 0.000000 0.000000 
8.934990 21.245690 0.710141 28.109095 -84.870418 -2.535072 0.954652 -0.669988 -4.367995 -0.036190 -0.773481 -4.971493 -3.246494 -0.687715 -6.466114 2.049151 -1.578154 5.512322 -1.572605 -0.313144 3.637333 0.000000 0.000000 0.000000 9.962012 -1.244629 -5.011603 -44.020375 -64.346754 -32.369830 175.753146 -63.086820 179.639165 21.776008 -6.722587 -1.514176 -0.224295 1.049299 -0.000000 0.000000 0.000000 0.000000 0.000000 0.000000 0.000000 -3.368156 -3.386760 -6.576252 31.639760 70.508049 -41.724774 -177.017232 75.655083 179.655246 -23.795471 14.093883 -3.226100 0.179855 -0.990199 -0.000000 0.000000 0.000000 0.000000 0.000000 0.000000 0.000000 
8.804145 21.227915 0.702228 27.698706 -84.753384 -2.005544 1.051375 -0.638299 -4.290147 -0.016408 -0.747770 -4.940430 -3.232637 -0.661038 -6.383073 2.027894 -1.518669 5.642958 -1.584500 -0.315077 3.668025 0.000000 0.000000 0.000000 9.855411 -1.112056 -5.000600 -44.164826 -64.365531 -32.099687 175.747259 -62.558953 179.639393 21.754922 -6.846899 -1.537960 -0.228770 1.052812 -0.000000 0.000000 0.000000 0.000000 0.000000 0.000000 0.000000 -3.362957 -3.456920 -6.630935 31.218145 70.456572 -42.042647 -176.920088 74.815420 179.654270 -24.005130 14.070418 -3.250826 0.188184 -0.989337 -0.000000 0.000000 0.000000 0.000000 0.000000 0.000000 0.000000 
8.673346 21.199042 0.693930 27.267278 -84.626441 -1.454939 1.146977 -0.611934 -4.213763 0.002341 -0.727426 -4.908618 -3.224717 -0.639770 -6.296767 2.008175 -1.479333 5.760052 -1.599892 -0.316998 3.695097 0.000000 0.000000 0.000000 9.755207 -1.002521 -4.982845 -44.357368 -64.356272 -31.701150 175.754420 -62.079892 179.640719 21.650762 -6.946546 -1.550736 -0.230990 1.056183 -0.000000 0.000000 0.000000 0.000000 0.000000 0.000000 0.000000 -3.344834 -3.537575 -6.673979 30.910445 70.436002 -42.230856 -176.832501 74.045331 179.653721 -24.171720 14.009858 -3.261048 0.195476 -0.987952 -0.000000 0.000000 0.000000 0.000000 0.000000 0.000000 0.000000 
8.542744 21.158664 0.685089 26.850159 -84.493442 -0.923122 1.238558 -0.591038 -4.131865 0.019477 -0.712220 -4.875165 -3.222373 -0.623700 -6.209325 1.990931 -1.455749 5.864062 -1.618430 -0.318890 3.718603 0.000000 0.000000 0.000000 9.663873 -0.914740 -4.958687 -44.578942 -64.316995 -31.204836 175.772963 -61.642212 179.642917 21.480990 -7.027403 -1.554609 -0.231462 1.059458 -0.000000 0.000000 0.000000 0.000000 0.000000 0.000000 0.000000 -3.312649 -3.624504 -6.706049 30.703822 70.445556 -42.306324 -176.752843 73.331764 179.653564 -24.297747 13.916745 -3.258266 0.201799 -0.986110 -0.000000 0.000000 0.000000 0.000000 0.000000 0.000000 0.000000 
8.412148 21.106891 0.675603 26.502298 -84.359422 -0.438511 1.322054 -0.574915 -4.069264 0.034424 -0.701589 -4.844864 -3.224559 -0.612389 -6.119618 1.975075 -1.442961 5.955188 -1.639065 -0.320721 3.738761 0.000000 0.000000 0.000000 9.580694 -0.844702 -4.928158 -44.813714 -64.247321 -30.636249 175.801648 -61.238684 179.645819 21.257908 -7.094795 -1.551678 -0.230547 1.062729 -0.000000 0.000000 0.000000 0.000000 0.000000 0.000000 0.000000 -3.271807 -3.714137 -6.727629 30.603257 70.480425 -42.271873 -176.678673 72.659231 179.653694 -24.388477 13.798976 -3.244681 0.207251 -0.984023 -0.000000 0.000000 0.000000 0.000000 0.000000 0.000000 0.000000 
8.282172 21.043347 0.665501 26.128195 -84.230243 0.052382 1.405213 -0.562857 -3.985949 0.048687 -0.694680 -4.811162 -3.231041 -0.604798 -6.033818 1.962716 -1.433621 6.034887 -1.661162 -0.322454 3.755717 0.000000 0.000000 0.000000 9.504240 -0.792896 -4.891761 -45.046619 -64.150669 -30.023045 175.838428 -60.867839 179.649043 21.009338 -7.161513 -1.546447 -0.228953 1.066146 -0.000000 0.000000 0.000000 0.000000 0.000000 0.000000 0.000000 -3.219684 -3.797354 -6.739717 30.578929 70.535016 -42.155787 -176.609604 72.019492 179.654058 -24.451452 13.666799 -3.223896 0.212045 -0.981769 -0.000000 0.000000 0.000000 0.000000 0.000000 0.000000 0.000000 
8.152456 20.968198 0.654629 25.846030 -84.108271 0.469326 1.476860 -0.554879 -3.920049 0.060357 -0.691315 -4.781088 -3.240481 -0.600982 -5.949159 1.953644 -1.422066 6.103737 -1.683562 -0.324065 3.769868 0.000000 0.000000 0.000000 9.432147 -0.755258 -4.849638 -45.267671 -64.028788 -29.381703 175.882339 -60.526849 179.652500 20.742072 -7.229423 -1.539716 -0.226874 1.069752 -0.000000 0.000000 0.000000 0.000000 0.000000 0.000000 0.000000 -3.161386 -3.870595 -6.742161 30.644681 70.601543 -41.950049 -176.543493 71.399083 179.654514 -24.494201 13.531432 -3.199509 0.216290 -0.979656 -0.000000 0.000000 0.000000 0.000000 0.000000 0.000000 0.000000 
